<svg width="26" height="26" viewBox="0 0 26 26" fill="none" xmlns="http://www.w3.org/2000/svg">
<path d="M13.766 7.26587C14.189 6.8428 14.189 6.15687 13.766 5.7338C13.3429 5.31074 12.657 5.31074 12.2339 5.7338L5.73389 12.2338C5.32376 12.6439 5.30941 13.3043 5.70133 13.7319L11.6597 20.2319C12.064 20.6729 12.7492 20.7027 13.1903 20.2984C13.6313 19.8941 13.6611 19.2088 13.2568 18.7678L7.9994 13.0324L13.766 7.26587Z" fill="#FFF4D6"/>
<path opacity="0.3" d="M21.3494 7.26587C21.7724 6.8428 21.7724 6.15687 21.3494 5.7338C20.9263 5.31074 20.2404 5.31074 19.8173 5.7338L13.3173 12.2338C12.9072 12.6439 12.8928 13.3043 13.2848 13.7319L19.2431 20.2319C19.6474 20.6729 20.3327 20.7027 20.7737 20.2984C21.2148 19.8941 21.2445 19.2088 20.8403 18.7678L15.5828 13.0324L21.3494 7.26587Z" fill="#FFF4D6"/>
</svg>
