<svg width="23" height="23" viewBox="0 0 23 23" fill="none" xmlns="http://www.w3.org/2000/svg">
<path opacity="0.3" fill-rule="evenodd" clip-rule="evenodd" d="M3.35413 20.1252H19.6458C20.4397 20.1252 21.0833 19.4816 21.0833 18.6877V8.146C21.0833 7.35209 20.4397 6.7085 19.6458 6.7085H9.58329L7.12933 4.25453C6.85974 3.98495 6.49411 3.8335 6.11286 3.8335H3.35413C2.56022 3.8335 1.91663 4.47709 1.91663 5.271V18.6877C1.91663 19.4816 2.56022 20.1252 3.35413 20.1252Z" fill="#8AA399"/>
<path opacity="0.3" fill-rule="evenodd" clip-rule="evenodd" d="M3.83337 18.2082L9.58337 10.5415L15.3334 18.2082H3.83337Z" fill="#8AA399"/>
<path fill-rule="evenodd" clip-rule="evenodd" d="M10.5416 18.2082L14.375 13.4165L18.2083 18.2082H10.5416Z" fill="#8AA399"/>
<path opacity="0.3" fill-rule="evenodd" clip-rule="evenodd" d="M17.25 11.5C18.0439 11.5 18.6875 10.8564 18.6875 10.0625C18.6875 9.26859 18.0439 8.625 17.25 8.625C16.4561 8.625 15.8125 9.26859 15.8125 10.0625C15.8125 10.8564 16.4561 11.5 17.25 11.5Z" fill="#8AA399"/>
</svg>
