<svg width="23" height="23" viewBox="0 0 23 23" fill="none" xmlns="http://www.w3.org/2000/svg">
<g opacity="0.3">
<path d="M8.98438 2.51562H3.95312C3.15922 2.51562 2.51562 3.15922 2.51562 3.95312V8.98438C2.51562 9.77828 3.15922 10.4219 3.95312 10.4219H8.98438C9.77828 10.4219 10.4219 9.77828 10.4219 8.98438V3.95312C10.4219 3.15922 9.77828 2.51562 8.98438 2.51562Z" fill="#8AA399"/>
<path d="M19.0469 2.51562H14.0156C13.2217 2.51562 12.5781 3.15922 12.5781 3.95312V8.98438C12.5781 9.77828 13.2217 10.4219 14.0156 10.4219H19.0469C19.8408 10.4219 20.4844 9.77828 20.4844 8.98438V3.95312C20.4844 3.15922 19.8408 2.51562 19.0469 2.51562Z" fill="#8AA399"/>
<path d="M8.98438 12.5781H3.95312C3.15922 12.5781 2.51562 13.2217 2.51562 14.0156V19.0469C2.51562 19.8408 3.15922 20.4844 3.95312 20.4844H8.98438C9.77828 20.4844 10.4219 19.8408 10.4219 19.0469V14.0156C10.4219 13.2217 9.77828 12.5781 8.98438 12.5781Z" fill="#8AA399"/>
</g>
<path d="M16.5312 20.4844C18.7145 20.4844 20.4844 18.7145 20.4844 16.5312C20.4844 14.348 18.7145 12.5781 16.5312 12.5781C14.348 12.5781 12.5781 14.348 12.5781 16.5312C12.5781 18.7145 14.348 20.4844 16.5312 20.4844Z" fill="#8AA399"/>
</svg>
