<svg width="18" height="18" viewBox="0 0 18 18" fill="none" xmlns="http://www.w3.org/2000/svg">
<g clip-path="url(#clip0_126_1499)">
<path d="M10.5919 8.99981L17.6702 1.92154C18.1099 1.48215 18.1099 0.769215 17.6702 0.329824C17.2304 -0.109941 16.5182 -0.109941 16.0785 0.329824L9.00019 7.4081L1.92154 0.329824C1.48177 -0.109941 0.76959 -0.109941 0.329824 0.329824C-0.109941 0.769215 -0.109941 1.48215 0.329824 1.92154L7.40848 8.99981L0.329824 16.0781C-0.109941 16.5175 -0.109941 17.2304 0.329824 17.6698C0.549707 17.8893 0.837881 17.9993 1.12568 17.9993C1.41348 17.9993 1.70165 17.8893 1.92154 17.6694L9.00019 10.5911L16.0785 17.6694C16.2983 17.8893 16.5865 17.9993 16.8743 17.9993C17.1621 17.9993 17.4503 17.8893 17.6702 17.6694C18.1099 17.23 18.1099 16.5171 17.6702 16.0777L10.5919 8.99981Z" fill="#828282"/>
</g>
<defs>
<clipPath id="clip0_126_1499">
<rect width="18" height="18" fill="white"/>
</clipPath>
</defs>
</svg>
