<svg width="19" height="19" viewBox="0 0 19 19" fill="none" xmlns="http://www.w3.org/2000/svg">
<g clip-path="url(#clip0_109_1380)">
<path d="M5.5 6.99951V16.3745C5.5 16.9958 6.00368 17.4995 6.625 17.4995H13.375C13.9963 17.4995 14.5 16.9958 14.5 16.3745V6.99951H5.5Z" fill="#4F4F4F"/>
<path opacity="0.3" fill-rule="evenodd" clip-rule="evenodd" d="M11.5 4.37451V3.99951C11.5 3.5853 11.1642 3.24951 10.75 3.24951H9.25C8.83579 3.24951 8.5 3.5853 8.5 3.99951V4.37451H5.125C4.91789 4.37451 4.75 4.5424 4.75 4.74951V5.12451C4.75 5.33162 4.91789 5.49951 5.125 5.49951H14.875C15.0821 5.49951 15.25 5.33162 15.25 5.12451V4.74951C15.25 4.5424 15.0821 4.37451 14.875 4.37451H11.5Z" fill="#4F4F4F"/>
</g>
<defs>
<clipPath id="clip0_109_1380">
<rect width="17.3684" height="17.3684" fill="white" transform="translate(0.815796 0.81543)"/>
</clipPath>
</defs>
</svg>
