<svg width="28" height="28" viewBox="0 0 28 28" fill="none" xmlns="http://www.w3.org/2000/svg">
<path d="M9.33333 7.00065C10.622 7.00065 11.6667 5.95598 11.6667 4.66732C11.6667 3.37865 10.622 2.33398 9.33333 2.33398C8.04467 2.33398 7 3.37865 7 4.66732C7 5.95598 8.04467 7.00065 9.33333 7.00065Z" fill="#BDBDBD"/>
<path d="M9.33333 16.3327C10.622 16.3327 11.6667 15.288 11.6667 13.9994C11.6667 12.7107 10.622 11.666 9.33333 11.666C8.04467 11.666 7 12.7107 7 13.9994C7 15.288 8.04467 16.3327 9.33333 16.3327Z" fill="#BDBDBD"/>
<path d="M9.33333 25.6667C10.622 25.6667 11.6667 24.622 11.6667 23.3333C11.6667 22.0447 10.622 21 9.33333 21C8.04467 21 7 22.0447 7 23.3333C7 24.622 8.04467 25.6667 9.33333 25.6667Z" fill="#BDBDBD"/>
<path d="M18.6668 7.00065C19.9555 7.00065 21.0002 5.95598 21.0002 4.66732C21.0002 3.37865 19.9555 2.33398 18.6668 2.33398C17.3782 2.33398 16.3335 3.37865 16.3335 4.66732C16.3335 5.95598 17.3782 7.00065 18.6668 7.00065Z" fill="#BDBDBD"/>
<path d="M18.6668 16.3327C19.9555 16.3327 21.0002 15.288 21.0002 13.9994C21.0002 12.7107 19.9555 11.666 18.6668 11.666C17.3782 11.666 16.3335 12.7107 16.3335 13.9994C16.3335 15.288 17.3782 16.3327 18.6668 16.3327Z" fill="#BDBDBD"/>
<path d="M18.6668 25.6667C19.9555 25.6667 21.0002 24.622 21.0002 23.3333C21.0002 22.0447 19.9555 21 18.6668 21C17.3782 21 16.3335 22.0447 16.3335 23.3333C16.3335 24.622 17.3782 25.6667 18.6668 25.6667Z" fill="#BDBDBD"/>
</svg>
