<svg width="17" height="17" viewBox="0 0 17 17" fill="none" xmlns="http://www.w3.org/2000/svg">
<path d="M15.405 5.02808L9.13676 11.5558C8.94176 11.7589 8.67414 11.8762 8.39267 11.8822L5.75535 11.9375L5.81091 9.28938C5.81668 9.01431 5.92893 8.7522 6.12403 8.55821L12.5348 2.18404C12.9501 1.77114 13.6212 1.7721 14.0353 2.18619L15.39 3.54087C15.799 3.94986 15.8057 4.61088 15.405 5.02808Z" fill="#333333"/>
<path opacity="0.3" d="M9.13734 1.41699C9.52854 1.41699 9.84567 1.73412 9.84567 2.12533C9.84567 2.51653 9.52854 2.83366 9.13734 2.83366H4.24984C3.46743 2.83366 2.83317 3.46792 2.83317 4.25033V12.7503C2.83317 13.5327 3.46743 14.167 4.24984 14.167H12.7498C13.5322 14.167 14.1665 13.5327 14.1665 12.7503V9.20866C14.1665 8.81746 14.4836 8.50033 14.8748 8.50033C15.266 8.50033 15.5832 8.81746 15.5832 9.20866V12.7503C15.5832 14.3151 14.3146 15.5837 12.7498 15.5837H4.24984C2.68503 15.5837 1.4165 14.3151 1.4165 12.7503V4.25033C1.4165 2.68552 2.68503 1.41699 4.24984 1.41699H9.13734Z" fill="#333333"/>
</svg>
