<svg width="16" height="16" viewBox="0 0 16 16" fill="none" xmlns="http://www.w3.org/2000/svg">
<path d="M14.4104 1.58956C13.3854 0.56453 12.0225 0 10.5729 0C9.12326 0 7.76039 0.564499 6.73536 1.58956C5.89546 2.42946 5.36427 3.49352 5.19918 4.66677C5.05596 5.68443 5.20874 6.73752 5.62983 7.66936L0 13.2992V16H2.70081L3.57443 15.1263L3.56762 14.138L4.56962 14.1312L5.64302 13.0578L5.64314 12.1654L6.54455 12.1562L8.33064 10.3701C9.26245 10.7912 10.3156 10.9441 11.3332 10.8008C12.5064 10.6357 13.5705 10.1045 14.4104 9.26461C15.4355 8.23958 16 6.87671 16 5.42708C16 3.97746 15.4355 2.61462 14.4104 1.58956V1.58956ZM12.9518 5.65708C12.6034 6.00549 12.1401 6.19742 11.6474 6.19742C11.1546 6.19742 10.6913 6.00552 10.3429 5.65708C9.62361 4.9378 9.62361 3.76746 10.3429 3.04818C11.0622 2.3289 12.2325 2.32887 12.9518 3.04818C13.3003 3.39662 13.4922 3.8599 13.4922 4.35265C13.4922 4.84537 13.3003 5.30865 12.9518 5.65708Z" fill="#828282" fill-opacity="0.5"/>
<path d="M11.6474 3.4458C11.415 3.4458 11.1828 3.53421 11.0059 3.71111C10.6521 4.06486 10.6521 4.64045 11.0059 4.9942C11.1772 5.16555 11.4051 5.25995 11.6474 5.25995C11.8898 5.25995 12.1176 5.16558 12.289 4.9942C12.4603 4.82286 12.5547 4.59502 12.5547 4.35267C12.5547 4.11033 12.4603 3.88249 12.289 3.71111C12.1121 3.53427 11.8797 3.4458 11.6474 3.4458Z" fill="#828282" fill-opacity="0.5"/>
</svg>
