<svg width="18" height="18" viewBox="0 0 18 18" fill="none" xmlns="http://www.w3.org/2000/svg">
<path d="M15.1193 9.84375H5.344C4.87803 9.84375 4.50025 9.46598 4.50025 9.00001C4.50025 8.53404 4.87803 8.15626 5.344 8.15626H15.1193L14.0284 7.06536C13.6989 6.73585 13.6989 6.20164 14.0284 5.87213C14.3579 5.54262 14.8922 5.54262 15.2217 5.87213L17.7528 8.40331C17.7725 8.42305 17.7912 8.44375 17.8089 8.46535C17.8166 8.47475 17.8233 8.4847 17.8305 8.49432C17.8398 8.5067 17.8494 8.51879 17.858 8.53167C17.8658 8.54343 17.8727 8.55563 17.8799 8.56767C17.8868 8.57926 17.894 8.59057 17.9004 8.60249C17.907 8.61487 17.9126 8.62758 17.9186 8.64018C17.9244 8.6525 17.9305 8.66465 17.9358 8.67725C17.9408 8.68957 17.945 8.70211 17.9494 8.7146C17.9543 8.7281 17.9595 8.74143 17.9637 8.75521C17.9674 8.7677 17.9702 8.78035 17.9733 8.79301C17.9769 8.80701 17.9808 8.82096 17.9836 8.83525C17.9865 8.84982 17.9882 8.86456 17.9903 8.87924C17.9921 8.89178 17.9945 8.90416 17.9958 8.91687C17.9985 8.94409 17.9999 8.97149 17.9999 8.99883C17.9999 8.99922 18 8.99967 18 9.00006C18 9.00046 17.9999 9.00091 17.9999 9.0013C17.9999 9.02869 17.9985 9.05603 17.9958 9.08331C17.9945 9.09586 17.9922 9.10806 17.9904 9.12049C17.9883 9.13534 17.9866 9.15019 17.9836 9.16493C17.9808 9.17911 17.9769 9.19283 17.9734 9.20672C17.9702 9.21949 17.9674 9.23237 17.9636 9.24503C17.9594 9.25859 17.9543 9.27169 17.9496 9.28497C17.945 9.29768 17.9409 9.31045 17.9357 9.32294C17.9306 9.33531 17.9246 9.34718 17.9188 9.35927C17.9128 9.37215 17.907 9.38515 17.9003 9.3978C17.8941 9.40934 17.8871 9.4203 17.8804 9.4315C17.873 9.44393 17.866 9.45647 17.8579 9.46857C17.8496 9.48088 17.8405 9.49242 17.8316 9.50429C17.824 9.51447 17.8169 9.52498 17.8088 9.53488C17.7919 9.55536 17.7741 9.57499 17.7555 9.59383C17.7546 9.59473 17.7539 9.59575 17.753 9.59665L15.2217 12.1279C15.0569 12.2927 14.841 12.3751 14.6251 12.3751C14.4092 12.375 14.1932 12.2927 14.0285 12.128C13.699 11.7985 13.699 11.2643 14.0284 10.9348L15.1193 9.84375Z" fill="white" fill-opacity="0.5"/>
<path d="M0.84381 1.40625H11.5313C11.9972 1.40625 12.375 1.78402 12.375 2.24999V5.62497C12.375 6.09094 11.9972 6.46872 11.5313 6.46872C11.0653 6.46872 10.6875 6.09094 10.6875 5.62497V3.09374H1.68756V14.9062H10.6875V12.3749C10.6875 11.909 11.0653 11.5312 11.5313 11.5312C11.9972 11.5312 12.375 11.909 12.375 12.3749V15.75C12.375 16.2159 11.9972 16.5937 11.5313 16.5937H0.84381C0.377838 16.5937 6.48499e-05 16.2159 6.48499e-05 15.75V2.24999C6.48499e-05 1.78402 0.377838 1.40625 0.84381 1.40625Z" fill="white" fill-opacity="0.5"/>
</svg>
