<svg width="23" height="23" viewBox="0 0 23 23" fill="none" xmlns="http://www.w3.org/2000/svg">
<path opacity="0.3" d="M11.5 4.3718L7.44457 9.23835C7.10574 9.64495 6.50145 9.69988 6.09485 9.36105C5.68825 9.02222 5.63331 8.41793 5.97215 8.01133L10.7638 2.26133C11.1469 1.80156 11.8531 1.80156 12.2362 2.26133L17.0279 8.01133C17.3667 8.41793 17.3118 9.02222 16.9052 9.36105C16.4986 9.69988 15.8943 9.64495 15.5555 9.23835L11.5 4.3718Z" fill="#8AA399"/>
<path fill-rule="evenodd" clip-rule="evenodd" d="M3.35421 8.625H19.6459C20.1752 8.625 20.6042 9.05406 20.6042 9.58333C20.6042 9.70986 20.5792 9.83513 20.5305 9.95192L17.0289 18.3558C16.5825 19.4271 15.5357 20.125 14.375 20.125H8.62505C7.46441 20.125 6.4176 19.4271 5.9712 18.3558L2.4696 9.95192C2.26603 9.46336 2.49706 8.90228 2.98562 8.69872C3.10242 8.65005 3.22769 8.625 3.35421 8.625ZM11.5 16.2917C12.5586 16.2917 13.4167 15.4335 13.4167 14.375C13.4167 13.3165 12.5586 12.4583 11.5 12.4583C10.4415 12.4583 9.58338 13.3165 9.58338 14.375C9.58338 15.4335 10.4415 16.2917 11.5 16.2917Z" fill="#8AA399"/>
</svg>
