<svg width="20" height="20" viewBox="0 0 20 20" fill="none" xmlns="http://www.w3.org/2000/svg">
<path opacity="0.3" d="M11.9107 13.9226C11.5853 13.5972 11.5853 13.0695 11.9107 12.7441C12.2361 12.4186 12.7638 12.4186 13.0892 12.7441L16.4225 16.0774C16.748 16.4028 16.748 16.9305 16.4225 17.2559C16.0971 17.5814 15.5695 17.5814 15.244 17.2559L11.9107 13.9226Z" fill="#BDBDBD"/>
<path d="M9.16671 13.333C11.4679 13.333 13.3334 11.4675 13.3334 9.16634C13.3334 6.86515 11.4679 4.99967 9.16671 4.99967C6.86552 4.99967 5.00004 6.86515 5.00004 9.16634C5.00004 11.4675 6.86552 13.333 9.16671 13.333ZM9.16671 14.9997C5.94505 14.9997 3.33337 12.388 3.33337 9.16634C3.33337 5.94468 5.94505 3.33301 9.16671 3.33301C12.3884 3.33301 15 5.94468 15 9.16634C15 12.388 12.3884 14.9997 9.16671 14.9997Z" fill="#BDBDBD"/>
</svg>
