<svg width="26" height="26" viewBox="0 0 26 26" fill="none" xmlns="http://www.w3.org/2000/svg">
<path d="M15.484 18.0994C15.0609 17.6763 15.0609 16.9904 15.484 16.5673C15.9071 16.1442 16.593 16.1442 17.0161 16.5673L21.3494 20.9006C21.7725 21.3237 21.7725 22.0096 21.3494 22.4327C20.9263 22.8558 20.2404 22.8558 19.8173 22.4327L15.484 18.0994Z" fill="#044700"/>
<path d="M11.9166 17.334C14.9082 17.334 17.3333 14.9089 17.3333 11.9173C17.3333 8.92578 14.9082 6.50065 11.9166 6.50065C8.9251 6.50065 6.49998 8.92578 6.49998 11.9173C6.49998 14.9089 8.9251 17.334 11.9166 17.334ZM11.9166 19.5007C7.72849 19.5007 4.33331 16.1055 4.33331 11.9173C4.33331 7.72916 7.72849 4.33398 11.9166 4.33398C16.1048 4.33398 19.5 7.72916 19.5 11.9173C19.5 16.1055 16.1048 19.5007 11.9166 19.5007Z" fill="#044700"/>
</svg>
